# xmcd
#
# Track frame offsets: 
#        150
#        5275
#        29772
#        47842
#        67870
#        86731
#        107025
#        130844
#        152371
#        170174
#        188099
#
# Disc length: 2779 seconds
#
# Revision: 0
# Processed by: cddbd v1.5.2PL0 Copyright (c) Steve Scherf et al.
# Submitted via: ExactAudioCopy v1.0b2
#
DISCID=890ad90b
DTITLE=Sound CYCLONE - トウホウファンクラブ
DYEAR=2015
DGENRE=R&B
TTITLE0=トウホウファンクラブのテーマ
TTITLE1=賽銭ファンク
TTITLE2=RE:BiRTH
TTITLE3=Sweet Life
TTITLE4=アカネノソラ
TTITLE5=忌話
TTITLE6=Red Zone
TTITLE7=踏切
TTITLE8=テノナルホウエ
TTITLE9=不安喰らう
TTITLE10=マジカルSUIKEN☆すいかちゃんのテーマ(ちょっと大人Vver.)
EXTD=
EXTT0=
EXTT1=
EXTT2=
EXTT3=
EXTT4=
EXTT5=
EXTT6=
EXTT7=
EXTT8=
EXTT9=
EXTT10=
PLAYORDER=
